<?xml version="1.0" encoding="utf-8"?>
<!-- Generator: Adobe Illustrator 16.0.0, SVG Export Plug-In . SVG Version: 6.00 Build 0)  -->
<!DOCTYPE svg PUBLIC "-//W3C//DTD SVG 1.1//EN" "http://www.w3.org/Graphics/SVG/1.1/DTD/svg11.dtd">
<svg version="1.1" id="Layer_1" xmlns="http://www.w3.org/2000/svg" xmlns:xlink="http://www.w3.org/1999/xlink" x="0px" y="0px"
	 width="800px" height="300px" viewBox="0 0 800 300" enable-background="new 0 0 800 300" xml:space="preserve">
<g>
	<path fill-rule="evenodd" clip-rule="evenodd" fill="#3A3129" d="M657.063,138.571c-1.437-6.112,3.878-9.338,5.962-13.947
		c2.725-0.359,5.447-0.718,8.172-1.077c-3.985,4.208-0.555,6.988,1.879,10.016c2.238,2.79,3.504,0.502,4.979-0.848
		c0.896,0.425,1.793,0.847,2.688,1.27c-3.495,4.527-2.699,8.332,2.606,11.398c5.672,3.278,11.544,6.217,17.13,9.631
		c1.981,1.211,3.112,0.856,4.448-0.544c6.534,2.249,12.933,4.938,19.754,6.275c-8.222,0.646-15.114,2.384-20.853,10.017
		c-2.94,3.911-8.733,7.065-13.111,10.762c-2.131,1.796-4.636,3.416-7.601,4.4c5.453,1.333,10.656,3.351,16.41,3.206
		c16.9-0.421,32.77,5.198,48.995,8.679c4.117,0.885,4.018,3.688,1.046,5.598c-2.905,1.871-4.461,4.451-5.236,7.339
		c-1.141,4.255-4.001,5.898-7.813,6.576c-4.387,0.777-8.785,1.86-13.205,1.995c-28.055,0.861-56.088,3.367-84.198,1.13
		c-4.939-0.396-8.306-2.055-10.483-6.655c-1.285-2.712-2.967-5.289-5.802-7.057c-3.194-1.994-3.037-4.354,0.728-5.709
		c7.454-2.683,14.939-5.299,22.742-6.815c8.426-1.64,11.064-4.01,11.879-12.337c0.456-4.625,2.457-6.636,6.904-6.628
		c4.97,0.014,9.939,0.004,15.28-0.551c-4.148-2.64-4.761-6.048-4.581-10.42c0.31-7.49-5.863-12.222-15.703-12.899
		c-2.115-0.146-4.233-0.227-6.351-0.339c0.057-1.842,0.835-3.906,2.158-4.529C660.604,144.287,658.703,141.5,657.063,138.571z"/>
	<path fill-rule="evenodd" clip-rule="evenodd" fill="#7A914B" d="M252.592,146.97c8.702-0.232,17.412-1.066,26.069,0.838
		c16.895,3.715,27.898,16.264,28.472,32.818c0.582,16.779-9.756,30.339-26.585,34.997c-8.359,2.313-16.887,2.438-25.389,1.671
		c-8.139-0.733-16.254-0.663-24.389-0.481c-1.521,0.033-3.408,0.699-3.963-1.268c-0.548-1.944,0.975-3.812,2.485-4.134
		c9.829-2.096,8.902-9.741,8.961-16.84c0.092-10.854-0.027-21.713,0.077-32.566c0.043-4.602-1.257-7.841-6.347-8.771
		c-1.964-0.357-4.652-1.12-4.024-3.954c0.498-2.247,2.975-2.249,4.869-2.275C239.414,146.915,246.003,146.97,252.592,146.97z
		 M256.833,179.787c0.088,7.541-0.225,15.102,0.966,22.596c1.007,6.341,6.771,10.07,12.856,8.019
		c5.901-1.99,10.607-5.583,13.062-11.555c4.152-10.104,4.517-20.393,0.555-30.549c-3.158-8.096-9.387-13.202-17.812-15.246
		c-5.621-1.36-8.168,0.826-8.917,6.444C256.643,166.248,256.979,173.021,256.833,179.787z"/>
	<path fill-rule="evenodd" clip-rule="evenodd" fill="#7A914B" d="M171.485,146.863c8.3,0.109,16.683-1.339,24.873,1.029
		c7.348,2.125,12.23,6.824,13.396,14.475c1.114,7.303-1.073,13.489-8.09,17.059c-2.88,1.468-2.796,3.44-1.416,5.709
		c6.097,10.018,10.748,21.288,22.656,26.324c1.271,0.537,2.511,1.42,2.214,3.038c-0.413,2.247-2.191,3.098-4.236,3.316
		c-10.333,1.101-19.699-0.811-26.931-8.983c-4.261-4.817-7.374-10.425-10.715-15.873c-1.008-1.641-2.011-3.379-3.394-4.671
		c-1.836-1.715-3.736-1.645-3.793,1.42c-0.091,5.032-0.037,10.081,0.283,15.104c0.283,4.446,4.507,4.725,7.41,6.411
		c1.514,0.879,4.573,0.722,3.99,3.249c-0.432,1.87-3.069,2.229-4.967,2.267c-5.41,0.103-10.826-0.11-16.238-0.055
		c-4.646,0.046-9.289,0.375-13.935,0.402c-1.933,0.011-4.337-0.285-4.791-2.47c-0.486-2.341,1.732-3.333,3.621-3.76
		c4.389-0.996,6.025-4.027,6.053-8.051c0.099-13.942,0.744-27.888-0.4-41.826c-0.318-3.878-1.349-6.686-5.531-7.713
		c-1.802-0.442-4.121-1.332-3.454-3.815c0.567-2.109,2.816-2.537,4.795-2.56C159.085,146.818,165.286,146.863,171.485,146.863z
		 M191.936,167.452c-0.06-6.78-4.242-12.482-10.137-13.846c-3.94-0.908-6.462-0.087-6.288,4.678c0.168,4.623-0.018,9.26,0.177,13.88
		c0.128,3.031-1.359,7.093,3.463,7.949c4.597,0.814,8.36-0.979,10.89-4.879C191.537,172.929,191.748,170.155,191.936,167.452z"/>
	<path fill-rule="evenodd" clip-rule="evenodd" fill="#7A914B" d="M521.73,170.172c-0.846,11.849-0.748,23.346,1.029,34.768
		c0.709,4.564,5.235,5.216,8.725,6.772c1.5,0.669,3.862,0.979,3.404,3.221c-0.343,1.67-2.393,1.795-3.941,1.812
		c-8.692,0.096-17.387,0.16-26.078,0.145c-1.379-0.004-2.822-0.597-3.216-2.073c-0.516-1.929,1.036-3.073,2.45-3.374
		c7.941-1.704,8.679-7.497,8.782-14.15c0.159-10.266,0.82-20.521,1.173-30.784c0.267-7.754-1.737-10.718-9.028-13.62
		c-2.179-0.867-5.083-1.591-4.565-4.363c0.582-3.12,3.765-1.708,5.901-1.977c13.49-1.701,23.881,2.346,32.296,13.897
		c6.894,9.465,16.109,17.239,24.33,25.731c0.756,0.782,1.47,2.092,2.796,1.643c1.34-0.449,1.085-1.894,1.153-2.99
		c0.49-7.942,0.153-15.873-0.297-23.811c-0.261-4.58-3.224-6.202-7.002-7.318c-2.185-0.646-5.217-1.264-4.736-4.137
		c0.46-2.753,3.48-2.556,5.803-2.598c7.168-0.128,14.336-0.282,21.503-0.292c2.277-0.002,5.358-0.03,5.772,2.624
		c0.328,2.107-2.675,2.485-4.398,2.953c-6.121,1.658-8.222,5.21-8.394,11.754c-0.395,15.303-0.835,30.592-0.57,45.904
		c0.054,3.131,1.111,7.304-2.845,8.645c-3.675,1.246-6.626-1.487-9.003-4.114c-11.963-13.21-23.841-26.499-35.794-39.72
		C525.598,173.188,524.525,171.255,521.73,170.172z"/>
	<path fill-rule="evenodd" clip-rule="evenodd" fill="#7A914B" d="M433.613,216.479c-4.445,0.284-8.886,0.657-13.335,0.814
		c-1.945,0.069-4.259-0.209-4.896-2.338c-0.727-2.43,1.574-3.479,3.303-4.023c6.026-1.908,8.841-6.61,11.009-11.955
		c5.968-14.715,12.042-29.379,17.224-44.41c1.805-5.238,7.34-7.314,12.05-9.183c3.157-1.254,3.77,2.621,4.647,4.789
		c6.397,15.803,12.84,31.594,18.93,47.518c2.557,6.686,5.947,12.072,13.287,14.123c1.572,0.438,4.002,1.197,3.759,3.086
		c-0.315,2.447-3.149,2.037-4.845,2.08c-5.405,0.135-10.827-0.313-16.238-0.271c-5.224,0.04-10.445,0.486-15.67,0.579
		c-1.712,0.031-3.766-0.21-4.431-2.125c-0.721-2.079,1.054-3.256,2.553-4.013c3.394-1.721,5.041-3.832,3.62-7.89
		c-1.424-4.073-2.776-7.675-8.129-7.377c-3.479,0.194-6.98,0.044-10.467-0.059c-4.358-0.128-7.104,1.056-8.198,6.058
		c-1.066,4.877,0.359,7.388,4.68,8.99c1.46,0.542,3.104,1.344,2.76,3.229c-0.376,2.041-2.21,2.533-4.035,2.581
		c-2.521,0.069-5.042,0.017-7.563,0.017C433.621,216.626,433.616,216.554,433.613,216.479z M450.688,165.842
		c-3.608,6.975-5.377,13.039-7.4,19c-0.377,1.112-0.632,2.584,0.845,2.88c4.177,0.835,8.417,0.575,12.607-0.014
		c1.527-0.215,1.441-1.538,1.18-2.729c-0.083-0.372-0.23-0.733-0.366-1.093C455.442,178.337,453.33,172.789,450.688,165.842z"/>
	<path fill-rule="evenodd" clip-rule="evenodd" fill="#7A914B" d="M77.902,216.536c-4.633,0.252-9.263,0.62-13.899,0.699
		c-1.71,0.029-3.754-0.468-4.23-2.438c-0.515-2.132,1.328-3.205,2.958-3.704c6.458-1.977,9.44-7.004,11.69-12.768
		c5.627-14.414,11.278-28.819,16.885-43.241c2.184-5.621,7.455-7.649,12.226-9.67c3.089-1.31,3.654,2.619,4.538,4.801
		c6.393,15.779,12.878,31.524,18.973,47.416c2.562,6.681,5.916,12.084,13.25,14.142c1.563,0.439,3.86,1.188,3.561,3.234
		c-0.31,2.118-2.81,1.968-4.379,1.982c-6.371,0.052-12.745-0.308-19.118-0.295c-4.441,0.011-8.88,0.497-13.321,0.53
		c-1.677,0.013-3.714-0.316-4.08-2.487c-0.296-1.76,1.032-2.879,2.436-3.614c3.227-1.693,5.324-3.638,3.709-7.805
		c-1.518-3.913-2.616-7.734-8.079-7.348c-3.462,0.244-6.966-0.014-10.447-0.156c-4.363-0.181-7.384,1.025-8.317,5.961
		c-0.848,4.484-0.027,7.54,4.614,9.116c1.51,0.513,3.707,1.225,2.917,3.546c-0.62,1.82-2.47,2.283-4.324,2.279
		c-2.517-0.002-5.035,0-7.552,0C77.907,216.656,77.904,216.597,77.902,216.536z M95.633,167.021
		c-0.519,0.058-1.036,0.116-1.554,0.176c-1.974,5.419-4.019,10.816-5.875,16.278c-0.506,1.491-1.604,4.014,0.88,4.325
		c3.981,0.499,8.088,0.254,12.117-0.022c1.873-0.129,1.607-1.706,1.068-3.124C100.031,178.787,97.841,172.901,95.633,167.021z"/>
	<path fill-rule="evenodd" clip-rule="evenodd" fill="#C0D364" d="M671.197,123.547c-2.725,0.359-5.447,0.718-8.172,1.077
		c-11.573,0.928-23.169,1.639-34.707,2.887c-4.75,0.515-9.313-0.03-13.847-0.849c-5.755-1.042-7.328-5.451-3.958-10.43
		c3.145-4.646,7.784-7.571,12.729-9.869c6.516-3.03,13.319-5.303,20.5-6.21c1.959-0.248,3.83-0.604,5.354-1.966
		c5.533,0.81,11.052,0.568,16.626,0.157c10.615-0.782,21.259-1.157,31.892-1.701c0.832,1.361,1.907,2.356,3.61,2.416
		c0.527,6.677,7.125,7.008,10.835,10.356c-1.636,4.933-6.178,6.186-10.261,7.69C691.935,120.737,681.495,121.852,671.197,123.547z"
		/>
	<path fill-rule="evenodd" clip-rule="evenodd" fill="#7A914B" d="M403.788,173.165c-2.363-3.013-2.343-5.404-2.897-7.633
		c-1.418-5.695-4.448-10.322-9.666-13.199c-4.917-2.712-10.04-1.598-12.912,2.559c-2.703,3.913-1.84,8.638,2.345,12.424
		c2.908,2.632,6.488,4.202,9.876,6.076c4.581,2.533,9.114,5.138,12.911,8.839c9.633,9.394,8.933,22.947-2.208,30.446
		c-11.906,8.016-24.89,7.777-37.799,2.595c-5.136-2.062-7.477-18.15-3.642-22.284c2.146-2.314,3.037-0.103,3.746,1.341
		c2.225,4.535,4.454,9.027,8.151,12.62c3.317,3.225,7.048,5.468,11.836,5.322c3.517-0.106,6.537-1.354,8.063-4.722
		c1.576-3.475,0.994-6.83-1.439-9.783c-2.393-2.904-5.614-4.719-8.832-6.527c-5.576-3.133-11.226-6.165-15.663-10.932
		c-8.704-9.351-7.223-23.348,3.515-30.205c12.152-7.761,24.805-5.679,37.406-1.072c1.262,0.461,2.828,1.462,2.421,2.906
		C407.113,158.65,407.633,166.021,403.788,173.165z"/>
	<path fill-rule="evenodd" clip-rule="evenodd" fill="#C0D364" d="M724.682,160.746c-6.821-1.338-13.22-4.026-19.758-6.272
		c-4.643-4.672-11.12-8.594-6.891-16.887c7.958-3.258,16.398-3.268,24.78-3.677c12.543,0.602,25.22-0.661,37.586,2.4
		c9.18,2.274,17.519,6.235,23.906,13.489c1.518,1.725,2.896,3.658,3.936,5.699c3.372,6.632,0.192,11.859-6.999,10.584
		C762.513,162.76,743.461,163.27,724.682,160.746z"/>
	<path fill-rule="evenodd" clip-rule="evenodd" fill="#7A914B" d="M69.766,149.271c-1.525,2.172-4.233,2.354-6.479,2.824
		c-5.761,1.197-7.866,4.413-7.817,10.247c0.117,13.94-0.241,27.883-0.451,41.824c-0.248,16.438-11.99,31.315-27.824,35.186
		c-1.66,0.406-3.459,0.383-5.188,0.332c-3.514-0.103-6.983-1.438-8.044-4.693c-1.36-4.178,2.747-6.444,5.138-8.994
		c2.521-2.686,5.261-1.106,7.855,0.513c2.342,1.46,4.485,4.574,7.64,2.653c2.863-1.746,2.177-5.177,2.177-8.015
		c0.002-19.755-0.157-39.508-0.078-59.259c0.022-5.36-2.183-8.33-7.459-9.261c-1.717-0.303-3.531-1.229-3.196-3.422
		c0.275-1.813,2.074-2.407,3.592-2.345c12.563,0.502,25.165-0.754,37.7,0.8C68.21,147.77,69.302,147.819,69.766,149.271z"/>
	<path fill-rule="evenodd" clip-rule="evenodd" fill="#637B4D" d="M712.06,109.416c-3.71-3.348-10.308-3.679-10.835-10.357
		c0.998-2.521,4.131-2.323,5.738-4.351c-2.054-0.343-4.015-0.353-5.715-1.025c-3.283-1.298-3.42,0.764-3.634,2.961
		c-10.633,0.543-21.276,0.918-31.892,1.701c-5.574,0.411-11.093,0.652-16.626-0.157c-2.161-0.476-5.214-0.025-5.536-3.014
		c-0.271-2.529,2.194-3.951,4.135-5.122c7.907-4.771,16.613-6.963,25.759-7.601c8.394,0.505,16.938-0.595,25.107,2.438
		c1.458,0.541,3,0.033,4.496-0.492c4.239-1.489,8.618-1.809,13.065-1.243c5.376,0.942,10.562,2.406,15.044,5.694
		c3.233,2.375,5.037,4.767-0.938,7.07c7.646,2.389,13.525,5.731,14.291,13.906c0.592,6.329-1.174,7.732-7.259,6.127
		C728.871,113.735,720.462,111.59,712.06,109.416z"/>
	<path fill-rule="evenodd" clip-rule="evenodd" fill="#7A914B" d="M352.178,149.491c-1.031,0.706-1.765,1.627-2.559,1.687
		c-8.881,0.641-10.168,6.563-10.087,13.825c0.13,11.829,0.109,23.664-0.078,35.493c-0.094,6.032,1.809,10.104,8.304,11.184
		c1.718,0.286,4.562,0.548,4.164,3.039c-0.363,2.261-3.057,1.929-4.917,1.948c-11.238,0.118-22.478,0.205-33.717,0.163
		c-1.824-0.006-4.549,0.221-4.913-2.042c-0.322-1.995,2.263-2.498,3.844-2.802c6.732-1.304,8.408-5.84,8.359-11.922
		c-0.103-12.608-0.181-25.22,0.067-37.826c0.112-5.686-1.515-9.347-7.629-10.271c-1.739-0.263-4.732-0.652-4.57-2.724
		c0.193-2.469,3.283-2.409,5.23-2.435c10.664-0.141,21.332-0.097,31.996,0.022C347.94,146.856,350.231,147.388,352.178,149.491z"/>
	<path fill-rule="evenodd" clip-rule="evenodd" fill="#637B4D" d="M657.063,138.571c1.64,2.929,3.54,5.715-1.176,7.937
		c-1.323,0.623-2.102,2.687-2.158,4.529c-20.169,6.744-39.801,2.631-59.243-3.233c-4.023-1.214-9.768-2.388-9.457-7.908
		c0.326-5.815,6.184-6.427,10.633-7.097c15.996-2.407,32.056-2.3,48.113-0.348C648.883,133.072,653.51,134.626,657.063,138.571z"/>
	<path fill-rule="evenodd" clip-rule="evenodd" fill="#C0D364" d="M716.123,83.153c-4.447-0.566-8.826-0.246-13.065,1.243
		c-1.496,0.525-3.038,1.033-4.496,0.492c-8.17-3.033-16.714-1.932-25.107-2.438c-3.459-1.668-7.108-3.042-10.343-5.077
		c-4.994-3.146-4.967-7.125-0.143-10.548c4.869-3.456,10.581-4.882,16.346-5.501c11.161-1.196,22.408-2.121,33.228,2.11
		c2.493,0.973,4.895,2.372,7.065,3.951c7.125,5.188,6.708,10.104-1.039,14.222C717.721,82.059,716.937,82.635,716.123,83.153z"/>
	<path fill-rule="evenodd" clip-rule="evenodd" fill="#637B4D" d="M722.813,133.91c-8.382,0.409-16.822,0.418-24.784,3.677
		c-5.893-0.59-11.749-1.328-17.286-3.602c-0.896-0.423-1.793-0.845-2.688-1.27c-2.435-3.342-0.675-5.325,2.295-6.785
		c4.211-2.07,8.791-2.994,13.389-3.366c12.479-1.008,24.981-1.775,37.481-2.557c2.058-0.129,4.829-0.687,5.717,1.588
		c0.862,2.208-1.505,3.725-3.005,5.155C730.693,129.84,726.556,131.574,722.813,133.91z"/>
</g>
</svg>
